<?xml version="1.0" encoding="UTF-8"?>
<svg version="1.1" xmlns="http://www.w3.org/2000/svg" width="144" height="144">
<path d="M0 0 C23.76 0 47.52 0 72 0 C72 1.98 72 3.96 72 6 C73.98 6 75.96 6 78 6 C78 7.98 78 9.96 78 12 C79.98 12 81.96 12 84 12 C84 29.82 84 47.64 84 66 C85.98 66 87.96 66 90 66 C90 67.98 90 69.96 90 72 C91.98 72 93.96 72 96 72 C96 73.98 96 75.96 96 78 C97.98 78 99.96 78 102 78 C102 81.96 102 85.92 102 90 C68.34 90 34.68 90 0 90 C0 88.02 0 86.04 0 84 C-1.98 84 -3.96 84 -6 84 C-6 82.02 -6 80.04 -6 78 C-7.98 78 -9.96 78 -12 78 C-12 56.22 -12 34.44 -12 12 C-10.02 12 -8.04 12 -6 12 C-6 10.02 -6 8.04 -6 6 C-4.02 6 -2.04 6 0 6 C0 4.02 0 2.04 0 0 Z " fill="#FFFFFF" transform="translate(36,30)"/>
<path d="M0 0 C1.98 0 3.96 0 6 0 C6 1.98 6 3.96 6 6 C9.96 6 13.92 6 18 6 C18 4.02 18 2.04 18 0 C19.98 0 21.96 0 24 0 C24 1.98 24 3.96 24 6 C25.98 6 27.96 6 30 6 C30 9.96 30 13.92 30 18 C-3.66 18 -37.32 18 -72 18 C-72 16.02 -72 14.04 -72 12 C-73.98 12 -75.96 12 -78 12 C-78 10.02 -78 8.04 -78 6 C-52.26 6 -26.52 6 0 6 C0 4.02 0 2.04 0 0 Z " fill="#CEA3BA" transform="translate(108,102)"/>
<path d="M0 0 C1.98 0 3.96 0 6 0 C6 3.96 6 7.92 6 12 C-27.66 12 -61.32 12 -96 12 C-96 10.02 -96 8.04 -96 6 C-64.32 6 -32.64 6 0 6 C0 4.02 0 2.04 0 0 Z " fill="#B62E5F" transform="translate(132,108)"/>
<path d="M0 0 C23.76 0 47.52 0 72 0 C72 1.98 72 3.96 72 6 C48.24 6 24.48 6 0 6 C0 4.02 0 2.04 0 0 Z " fill="#B62E5F" transform="translate(36,30)"/>
<path d="M0 0 C1.98 0 3.96 0 6 0 C6 21.78 6 43.56 6 66 C4.02 66 2.04 66 0 66 C0 44.22 0 22.44 0 0 Z " fill="#B62E5F" transform="translate(24,42)"/>
<path d="M0 0 C1.98 0 3.96 0 6 0 C6 17.82 6 35.64 6 54 C4.02 54 2.04 54 0 54 C0 36.18 0 18.36 0 0 Z " fill="#B62E5F" transform="translate(114,42)"/>
<path d="M0 0 C1.98 0 3.96 0 6 0 C6 5.94 6 11.88 6 18 C7.98 18 9.96 18 12 18 C12 19.98 12 21.96 12 24 C10.02 24 8.04 24 6 24 C6 29.94 6 35.88 6 42 C4.02 42 2.04 42 0 42 C0 28.14 0 14.28 0 0 Z " fill="#B62E5F" transform="translate(60,42)"/>
<path d="M0 0 C11.88 0 23.76 0 36 0 C36 1.98 36 3.96 36 6 C24.12 6 12.24 6 0 6 C0 4.02 0 2.04 0 0 Z " fill="#C53D70" transform="translate(36,114)"/>
<path d="M0 0 C5.94 0 11.88 0 18 0 C18 1.98 18 3.96 18 6 C12.06 6 6.12 6 0 6 C0 4.02 0 2.04 0 0 Z " fill="#B62E5F" transform="translate(78,90)"/>
<path d="M0 0 C5.94 0 11.88 0 18 0 C18 1.98 18 3.96 18 6 C12.06 6 6.12 6 0 6 C0 4.02 0 2.04 0 0 Z " fill="#B62E5F" transform="translate(54,90)"/>
<path d="M0 0 C1.98 0 3.96 0 6 0 C6 1.98 6 3.96 6 6 C4.02 6 2.04 6 0 6 C0 4.02 0 2.04 0 0 Z " fill="#B62E5F" transform="translate(36,114)"/>
<path d="M0 0 C1.98 0 3.96 0 6 0 C6 1.98 6 3.96 6 6 C4.02 6 2.04 6 0 6 C0 4.02 0 2.04 0 0 Z " fill="#B62E5F" transform="translate(30,108)"/>
<path d="M0 0 C1.98 0 3.96 0 6 0 C6 1.98 6 3.96 6 6 C4.02 6 2.04 6 0 6 C0 4.02 0 2.04 0 0 Z " fill="#B62E5F" transform="translate(126,102)"/>
<path d="M0 0 C1.98 0 3.96 0 6 0 C6 1.98 6 3.96 6 6 C4.02 6 2.04 6 0 6 C0 4.02 0 2.04 0 0 Z " fill="#CEA3BA" transform="translate(30,102)"/>
<path d="M0 0 C1.98 0 3.96 0 6 0 C6 1.98 6 3.96 6 6 C4.02 6 2.04 6 0 6 C0 4.02 0 2.04 0 0 Z " fill="#B62E5F" transform="translate(120,96)"/>
<path d="M0 0 C1.98 0 3.96 0 6 0 C6 1.98 6 3.96 6 6 C4.02 6 2.04 6 0 6 C0 4.02 0 2.04 0 0 Z " fill="#B62E5F" transform="translate(84,78)"/>
<path d="M0 0 C1.98 0 3.96 0 6 0 C6 1.98 6 3.96 6 6 C4.02 6 2.04 6 0 6 C0 4.02 0 2.04 0 0 Z " fill="#B62E5F" transform="translate(78,72)"/>
<path d="M0 0 C1.98 0 3.96 0 6 0 C6 1.98 6 3.96 6 6 C4.02 6 2.04 6 0 6 C0 4.02 0 2.04 0 0 Z " fill="#B62E5F" transform="translate(72,66)"/>
<path d="M0 0 C1.98 0 3.96 0 6 0 C6 1.98 6 3.96 6 6 C4.02 6 2.04 6 0 6 C0 4.02 0 2.04 0 0 Z " fill="#B62E5F" transform="translate(72,54)"/>
<path d="M0 0 C1.98 0 3.96 0 6 0 C6 1.98 6 3.96 6 6 C4.02 6 2.04 6 0 6 C0 4.02 0 2.04 0 0 Z " fill="#B62E5F" transform="translate(78,48)"/>
<path d="M0 0 C1.98 0 3.96 0 6 0 C6 1.98 6 3.96 6 6 C4.02 6 2.04 6 0 6 C0 4.02 0 2.04 0 0 Z " fill="#B62E5F" transform="translate(108,36)"/>
<path d="M0 0 C1.98 0 3.96 0 6 0 C6 1.98 6 3.96 6 6 C4.02 6 2.04 6 0 6 C0 4.02 0 2.04 0 0 Z " fill="#B62E5F" transform="translate(30,36)"/>
</svg>
